<?xml version="1.0" encoding="UTF-8"?>
<svg xmlns="http://www.w3.org/2000/svg" xmlns:xlink="http://www.w3.org/1999/xlink" width="650pt" height="650pt" viewBox="0 0 650 650" version="1.1">
<g id="surface1">
<path style=" stroke:none;fill-rule:evenodd;fill:rgb(10.588235%,12.156863%,13.72549%);fill-opacity:1;" d="M 325 0 C 145.4375 0 0 145.4375 0 325 C 0 468.8125 93.03125 590.28125 222.21875 633.34375 C 238.46875 636.1875 244.5625 626.4375 244.5625 617.90625 C 244.5625 610.1875 244.15625 584.59375 244.15625 557.375 C 162.5 572.40625 141.375 537.46875 134.875 519.1875 C 131.21875 509.84375 115.375 481 101.5625 473.28125 C 90.1875 467.1875 73.9375 452.15625 101.15625 451.75 C 126.75 451.34375 145.03125 475.3125 151.125 485.0625 C 180.375 534.21875 227.09375 520.40625 245.78125 511.875 C 248.625 490.75 257.15625 476.53125 266.5 468.40625 C 194.1875 460.28125 118.625 432.25 118.625 307.9375 C 118.625 272.59375 131.21875 243.34375 151.9375 220.59375 C 148.6875 212.46875 137.3125 179.15625 155.1875 134.46875 C 155.1875 134.46875 182.40625 125.9375 244.5625 167.78125 C 270.5625 160.46875 298.1875 156.8125 325.8125 156.8125 C 353.4375 156.8125 381.0625 160.46875 407.0625 167.78125 C 469.21875 125.53125 496.4375 134.46875 496.4375 134.46875 C 514.3125 179.15625 502.9375 212.46875 499.6875 220.59375 C 520.40625 243.34375 533 272.1875 533 307.9375 C 533 432.65625 457.03125 460.28125 384.71875 468.40625 C 396.5 478.5625 406.65625 498.0625 406.65625 528.53125 C 406.65625 572 406.25 606.9375 406.25 617.90625 C 406.25 626.4375 412.34375 636.59375 428.59375 633.34375 C 556.96875 590.28125 650 468.40625 650 325 C 650 145.4375 504.5625 0 325 0 Z M 325 0 "/>
</g>
</svg>
